<?xml version="1.0" encoding="UTF-8"?>
<svg width="100pt" height="100pt" version="1.1" viewBox="0 0 100 100" xmlns="http://www.w3.org/2000/svg">
 <path d="m49.594 35.766c0.82031 0 1.4922 0.66797 1.4922 1.4961v8.9531c0 0.82422-0.67188 1.4922-1.4922 1.4922-0.82422 0-1.4961-0.66797-1.4961-1.4922v-8.9531c0-0.82812 0.67188-1.4961 1.4961-1.4961zm1.4922 59.105 4.9219-4.9258c0.30078-0.29687 0.59766-0.44531 1.0469-0.44531 0.44922 0 0.74609 0.14844 1.043 0.44531 0.59766 0.59766 0.59766 1.4922 0 2.0898l-7.4609 7.4648c-0.29688 0.29688-0.67188 0.44531-1.043 0.44531-0.375 0-0.75-0.14844-1.0469-0.44531l-7.4609-7.4648c-0.59766-0.59766-0.59766-1.4922 0-2.0898 0.29687-0.29687 0.59375-0.44531 1.043-0.44531 0.44922 0 0.74609 0.14844 1.0469 0.44531l4.9219 4.9258v-20.297c0-0.89453 0.59766-1.4922 1.4961-1.4922 0.89453 0 1.4922 0.59766 1.4922 1.4922zm-6.9531-13.762c0.76172 0.28516 1.1602 1.1328 0.89844 1.8906-0.26562 0.76953-1.1172 1.1914-1.8984 0.92578-1.6914-0.59766-5.6523-2.2539-8.8398-6.332-3.8789-4.9609-4.1016-10.281-4.1055-11.977v-28.355c0.003906-1.4766 0.17969-7.8281 5.1523-13.195 5.6055-6.0547 13.004-6.2031 14.25-6.2109 1.2383 0 8.6797 0.12891 14.293 6.2109 4.9609 5.3711 5.1133 11.727 5.1133 13.195v28.355c0.003906 1.6719-0.19141 6.668-3.7266 11.496-3.3047 4.5078-7.6055 6.2461-9.2188 6.8125-0.77344 0.26562-1.6289-0.14844-1.8984-0.92188-0.26953-0.77344 0.14844-1.6289 0.91797-1.9023 1.4297-0.51172 4.8203-1.9531 7.5273-5.4805 3.1875-4.1484 3.4023-8.5508 3.4102-10.004v-28.355c0-1.1953-0.125-6.7188-4.4922-11.32-4.7422-4.9961-10.871-5.0977-11.926-5.0977-1.0195 0-7.5625 0.13672-12.344 5.5586-4.3086 4.8828-4.1328 10.605-4.0742 11.77v27.445c0.015625 1.4609 0.24609 5.7266 3.3086 9.8203 2.7461 3.6758 6.2422 5.1602 7.6523 5.6719zm2.4727-78.125c0-1.6484 1.3398-2.9844 2.9844-2.9844 1.6484 0 2.9883 1.3359 2.9883 2.9844 0 1.6523-1.3398 2.9844-2.9883 2.9844-1.6445 0-2.9844-1.332-2.9844-2.9844zm0 8.957c0-1.6523 1.3398-2.9844 2.9844-2.9844 1.6484 0 2.9883 1.332 2.9883 2.9844 0 1.6484-1.3398 2.9844-2.9883 2.9844-1.6445 0-2.9844-1.3359-2.9844-2.9844z" fill-rule="evenodd"/>
</svg>
