<?xml version="1.0" encoding="UTF-8"?>
<svg width="100pt" height="100pt" version="1.1" viewBox="0 0 100 100" xmlns="http://www.w3.org/2000/svg">
 <path d="m2.6602 5.7188c-0.42969-0.34375-0.69922-0.85156-0.74219-1.3984-0.042969-0.55078 0.14062-1.0938 0.51172-1.5039 0.37109-0.40625 0.89062-0.64453 1.4414-0.65625 0.55078-0.011718 1.082 0.20703 1.4688 0.60156l44.559 40.16 44.762-40.402c0.82422-0.66406 2.0234-0.56641 2.7344 0.21875 0.71094 0.78516 0.6875 1.9844-0.054687 2.7422l-46.102 41.621c-0.75781 0.68359-1.918 0.68359-2.6797 0zm92 47.16l-44.762 40.422-44.559-40.16c-0.82422-0.74219-2.0898-0.67188-2.8281 0.14844-0.74219 0.82422-0.67578 2.0898 0.14844 2.832l45.898 41.359c0.76172 0.6875 1.9219 0.6875 2.6797 0l46.102-41.621c0.42969-0.34375 0.69922-0.85156 0.74219-1.4023 0.042969-0.54688-0.14062-1.0898-0.51172-1.5-0.37109-0.40625-0.89062-0.64453-1.4414-0.65625-0.55078-0.011719-1.082 0.20703-1.4688 0.59766z"/>
</svg>
